<svg fill="#000000" height="200px" width="200px" version="1.1" id="Layer_1" xmlns="http://www.w3.org/2000/svg" xmlns:xlink="http://www.w3.org/1999/xlink" viewBox="0 0 511.999 511.999" xml:space="preserve"><g id="SVGRepo_bgCarrier" stroke-width="0"></g><g id="SVGRepo_tracerCarrier" stroke-linecap="round" stroke-linejoin="round"></g><g id="SVGRepo_iconCarrier"> <g> <g> <path d="M492.512,80.021L271.84,300.695l-21.518-21.518L483.885,45.611c-5.575-12.462-13.752-24.105-24.499-34.852L448.627,0 l-93.689,93.69l-34.189-0.586l-128.25,128.25l-22.341-22.341l-21.518,21.517l22.341,22.341L34.391,379.461 c-9.801,9.801-15.198,22.831-15.198,36.692c0,13.861,5.397,26.892,15.198,36.692l43.957,43.957 c9.8,9.801,22.831,15.198,36.692,15.198c13.86,0,26.891-5.398,36.691-15.198l136.59-136.59l22.341,22.341l21.518-21.518 l-22.341-22.341l105.364-105.364c6.069-5.531,75.666-70.511,77.562-142.204C492.865,87.372,492.779,83.671,492.512,80.021z M115.833,473.99l-58.63-58.63l21.518-21.518l58.63,58.63L115.833,473.99z M156.253,433.57l-58.63-58.63l21.518-21.518 l58.63,58.63L156.253,433.57z M196.673,393.15l-58.631-58.63l21.518-21.518l58.631,58.63L196.673,393.15z M237.091,352.731 l-58.631-58.63l21.518-21.518l58.631,58.63L237.091,352.731z"></path> </g> </g> </g></svg>