<svg fill="#000000" height="200px" width="200px" version="1.1" id="Layer_1" xmlns="http://www.w3.org/2000/svg" xmlns:xlink="http://www.w3.org/1999/xlink" viewBox="0 0 512 512" xml:space="preserve"><g id="SVGRepo_bgCarrier" stroke-width="0"></g><g id="SVGRepo_tracerCarrier" stroke-linecap="round" stroke-linejoin="round"></g><g id="SVGRepo_iconCarrier"> <g> <g> <path d="M294.668,375.889l-11.39-42.502c-0.731-2.727-2.861-4.857-5.589-5.589l-42.503-11.389 c-2.728-0.731-5.637,0.051-7.633,2.045L196.44,349.57c-1.997,1.997-2.776,4.906-2.045,7.633l11.389,42.503 c0.731,2.727,2.861,4.857,5.589,5.589l42.502,11.389c0.676,0.181,1.363,0.269,2.045,0.269c2.068,0,4.087-0.813,5.589-2.315 l31.115-31.115C294.62,381.525,295.399,378.616,294.668,375.889z M253.557,400.236l-33.689-9.027l-9.027-33.69l24.662-24.662 l33.689,9.027l9.027,33.69L253.557,400.236z"></path> </g> </g> <g> <g> <path d="M245.593,341.89c-3.085-3.085-8.089-3.085-11.175,0l-14.901,14.901c-3.086,3.086-3.086,8.09,0,11.175 c1.543,1.543,3.566,2.315,5.588,2.315s4.045-0.771,5.588-2.315l14.901-14.901C248.679,349.979,248.679,344.975,245.593,341.89z"></path> </g> </g> <g> <g> <path d="M311.929,274.231l-11.389-42.502c-0.731-2.727-2.861-4.857-5.589-5.589l-42.503-11.389 c-2.726-0.731-5.637,0.049-7.633,2.045l-31.115,31.115c-1.997,1.997-2.776,4.906-2.045,7.633l11.389,42.503 c0.731,2.727,2.861,4.857,5.589,5.589l42.503,11.389c0.676,0.181,1.362,0.269,2.044,0.269c2.068,0,4.087-0.813,5.589-2.315 l31.115-31.115C311.881,279.867,312.66,276.957,311.929,274.231z M270.819,298.578l-33.69-9.027l-9.027-33.69l24.662-24.662 l33.69,9.027l9.027,33.69L270.819,298.578z"></path> </g> </g> <g> <g> <path d="M286.805,263.47c-3.085-3.086-8.089-3.086-11.175,0l-14.901,14.901c-3.086,3.086-3.086,8.09,0,11.175 c1.543,1.543,3.566,2.315,5.588,2.315s4.045-0.771,5.588-2.315l14.901-14.901C289.891,271.559,289.891,266.555,286.805,263.47z"></path> </g> </g> <g> <g> <path d="M413.942,256.615l-11.388-42.504c-0.731-2.727-2.861-4.857-5.589-5.589l-42.503-11.389 c-2.727-0.73-5.637,0.05-7.633,2.045l-31.115,31.115c-1.997,1.997-2.776,4.906-2.045,7.633l11.389,42.503 c0.731,2.727,2.861,4.857,5.589,5.589l42.503,11.389c2.697,0.723,5.658-0.072,7.633-2.045l31.114-31.114 C413.893,262.251,414.673,259.342,413.942,256.615z M372.833,280.959l-33.69-9.027l-9.027-33.689l24.662-24.662l33.689,9.027 l9.027,33.69L372.833,280.959z"></path> </g> </g> <g> <g> <path d="M365.225,222.258c-3.085-3.085-8.089-3.085-11.175,0l-14.901,14.901c-3.086,3.086-3.086,8.09,0,11.175 c1.543,1.543,3.566,2.315,5.588,2.315s4.045-0.771,5.588-2.315l14.901-14.901C368.311,230.347,368.311,225.343,365.225,222.258z"></path> </g> </g> <g> <g> <path d="M466.166,94.534c-11.444,0-21.962,4.265-30.028,11.29V94.011c0-12.244-4.768-23.755-13.426-32.413 c-8.655-8.655-20.159-13.421-32.391-13.421c-0.005,0-0.012,0-0.017,0c-12.244,0-23.755,4.768-32.413,13.426 c-0.487,0.487-0.963,0.984-1.425,1.489c-7.073-16.204-23.251-27.559-42.032-27.559c-11.641,0-22.565,4.304-30.949,12.011 L256.97,20.502c-17.868-17.855-46.944-17.855-64.815,0.003c-8.094,8.094-12.505,18.553-13.239,29.227l-8.364-8.364 c-8.657-8.658-20.169-13.426-32.413-13.426c-12.246,0-23.754,4.769-32.404,13.426c-8.658,8.658-13.426,20.169-13.426,32.413 c0,0.693,0.02,1.383,0.051,2.073c-16.461-6.461-35.931-3.06-49.212,10.222c-17.67,17.67-17.856,46.29-0.583,64.205 c-10.655,0.737-21.1,5.156-29.228,13.284c-16.038,16.049-17.638,41.389-4.652,59.333c0.386,0.908,0.943,1.761,1.684,2.5 l2.627,2.627c0.002,0.002,0.004,0.005,0.006,0.007l120.676,120.686l-26.224-0.38c-0.038,0-0.077-0.001-0.115-0.001 c-29.921,0-54.264,24.343-54.264,54.264c0,29.921,24.343,54.264,54.256,54.264l82.088,0.082l-0.388,39.965 c-0.021,2.11,0.804,4.141,2.29,5.64c1.484,1.497,3.504,2.339,5.613,2.339c0.002,0,0.004,0,0.006,0l202.849-0.174 c4.364-0.003,7.899-3.545,7.896-7.909c-0.003-4.362-3.54-7.896-7.902-7.896c-0.002,0-0.004,0-0.006,0l-95.533,0.082 c42.642-41.864,168.963-169.491,190.429-191.022l-1.844,190.86l-38.26,0.033c-4.364,0.003-7.899,3.545-7.896,7.909 c0.003,4.362,3.54,7.896,7.903,7.896c0.002,0,0.004,0,0.006,0h46.08c4.332-0.003,7.854-3.534,7.895-7.866L512,140.365 C511.99,115.103,491.43,94.544,466.166,94.534z M360.271,94.11c0-0.035,0.005-0.067,0.005-0.102 c-0.004-8.017,3.119-15.556,8.791-21.228c5.673-5.673,13.215-8.797,21.24-8.797c0.004,0,0.007,0,0.011,0 c8.013,0,15.549,3.122,21.218,8.792c5.673,5.673,8.797,13.215,8.797,21.237l-0.002,92.904c-0.106-0.11-0.213-0.219-0.319-0.329 c-13.818-14.23-54.203-55.296-59.74-60.797V94.11z M314.436,51.338c16.557,0,30.027,13.471,30.027,30.034l0.005,8.376 c0,0.017-0.002,0.034-0.002,0.051v19.91l-49.894-50.86C300.01,54.029,306.998,51.338,314.436,51.338z M204.914,489.078 l0.311-32.117l35.139,0.035l29.37,32.026L204.914,489.078z M495.009,262.932c-2.863-2.902-21.36-21.367-27.54-27.999 c-0.961-1.03-0.655-0.702-0.012-0.012c-2.978-3.181-7.969-3.353-11.157-0.383c-3.193,2.976-3.369,7.976-0.394,11.169 c6.376,6.841,29.198,29.614,34.02,34.639c-23.611,23.646-158.532,159.964-203.267,203.749l-36.994-40.341 c-1.495-1.63-3.605-2.559-5.817-2.561l-136.51-0.137c-21.206,0-38.459-17.253-38.459-38.459c0-21.188,17.223-38.429,38.404-38.459 l45.637,0.663c3.205,0.054,6.141-1.862,7.394-4.825c1.253-2.963,0.584-6.389-1.69-8.665L24.246,216.926 c-11.409-11.7-11.288-30.626,0.267-42.19c5.673-5.672,13.215-8.796,21.239-8.796c8.024,0,15.566,3.124,21.239,8.796 c0.006,0.006,0.014,0.012,0.019,0.018c0.007,0.007,0.014,0.016,0.021,0.022l62.735,61.84c3.249,3.202,8.686,2.931,11.609-0.562 c2.607-3.115,2.379-7.842-0.514-10.695l-86.539-85.643c-11.708-11.708-11.708-30.759,0-42.467 C66.03,85.542,85.08,85.542,96.791,97.254l86.417,86.418c3.28,3.281,8.846,2.973,11.752-0.641 c2.494-3.101,2.237-7.721-0.575-10.535l-77.476-77.487l-0.001-0.001l-0.001-0.001c-5.671-5.667-8.794-13.206-8.794-21.227 c0-8.023,3.124-15.565,8.798-21.24c5.667-5.671,13.206-8.794,21.227-8.794c8.023,0,15.565,3.124,21.238,8.796l76.696,77.539 c3.181,3.265,8.623,3.109,11.619-0.325c2.67-3.061,2.538-7.792-0.296-10.703l-44.339-45.183 c-11.412-11.701-11.289-30.626,0.274-42.189c11.71-11.7,30.762-11.7,42.413-0.057c0,0,178.856,182.374,186.844,190.553 c3.185,3.261,8.626,3.098,11.618-0.34c2.666-3.064,2.528-7.796-0.311-10.702c-2.591-2.653-5.171-5.318-7.759-7.975v-62.787 c0-0.066-0.008-0.13-0.01-0.195c0.002-0.064,0.012-0.126,0.012-0.191c0.199-16.349,13.67-29.648,30.025-29.648 c16.553,0.006,30.026,13.478,30.032,29.953L495.009,262.932z"></path> </g> </g> </g></svg>